<svg id="SvgjsSvg1001" width="288" height="288" xmlns="http://www.w3.org/2000/svg" version="1.1"
     xmlns:xlink="http://www.w3.org/1999/xlink" xmlns:svgjs="http://svgjs.com/svgjs">
    <defs id="SvgjsDefs1002"></defs>
    <g id="SvgjsG1008">
        <svg xmlns="http://www.w3.org/2000/svg" enable-background="new 0 0 280.694 280.694"
             viewBox="0 0 280.694 280.694" width="288" height="288">
            <path
                d="M29.587 46.655c3.226-8.87 11.038-14.602 20.199-14.602 11.452 0 20.556 9.647 20.556 21.506V85.03c0 2.914-1.474 5.564-4.114 6.796-1.013.473-1.964.704-3.04.704-1.729 0-3.4-.598-4.777-1.752l-22.139-18.57c-7.437-6.232-10.063-16.262-6.685-25.553zM87.776 80.37a7.718 7.718 0 0 0 3.224.704 7.573 7.573 0 0 0 4.845-1.751l22.173-18.57c7.438-6.232 10.067-16.263 6.689-25.554-3.226-8.87-11.331-14.602-20.492-14.602-11.453 0-20.873 9.647-20.873 21.506v31.471c0 2.914 1.793 5.563 4.434 6.796zm156.903 87.316c1.986 41.372-4.67 70.847-20.206 87.608-2.839 3.063-6.595 4.803-10.771 4.803H31.8c-3.646 0-7.166-1.078-9.904-3.484-6.931-6.094-12.281-14.516-15.964-22.516H64.09c4.143 0 7.5-3.357 7.5-7.5s-3.357-7.5-7.5-7.5H1.503c-2.798-15-1.735-31.751 3.563-48.444 10.495-33.065 34.926-55.77 63.758-58.853 2.482-.266 5-.4 7.484-.4 42.749 0 74.057 38.918 94.774 64.67 5.078 6.313 11.763 14.623 15.552 18.014 5.259-2.734 14.869-13.025 23.506-24.908-12.732-1.782-23.597-10.495-28.436-23.239l-5.103-13.43a7.487 7.487 0 0 1 4.09-9.559 34.302 34.302 0 0 1 13.437-2.722c14.773 0 27.836 9.306 33.278 23.64l.051.222c5.788-12.516 18.07-20.992 32.252-20.992h13.715c4.143 0 7.269 3.179 7.269 7.321.001 20.599-16.016 37.267-36.014 37.269zm-151.522-3.581c0-8.251-6.537-14.964-14.571-14.964-8.035 0-14.572 6.713-14.572 14.964 0 8.252 6.537 14.965 14.572 14.965 8.034 0 14.571-6.713 14.571-14.965z"
                fill="#18d26e" class="color000 svgShape" data-darkreader-inline-fill=""
                style="--darkreader-inline-fill:#0dda6c;"></path>
        </svg>
    </g>
</svg>